# xmcd CD database file
# Copyright (C) 1997 Ti Kan
#
# Track frame offsets:
# 183
# 10415
# 19503
# 30858
# 41118
# 52538
# 67263
# 82020
# 95778
# 109165
# 123453
# 134643
# 146520
# 161695
# 172490
# 182468
# 196238
# 209640
# 219243
# 238963
#
# Disc length: 3349 seconds
#
# Revision: 1
# Processed by: cddbd v1.4b41PL1 Copyright (c) Steve Scherf et al.
# Submitted via: CDWizzard Release:4.20
#
DISCID=280d1314
DTITLE=Andre Kostelanetz - Andre Kostelanetz 20 Greatest Hits
DYEAR=1900
DGENRE=
TTITLE0=Hello Dolly
TTITLE1=Ebb Tide
TTITLE2=Singin in the Rain
TTITLE3=Somewhere My Love
TTITLE4=You Made Me Love You
TTITLE5=The Sounds of Silence
TTITLE6=Of My Beloved Daddy
TTITLE7=I'm Always Chasing Rainbows
TTITLE8=Jalousie
TTITLE9=Waltz from Merry Widow
TTITLE10=The Way We Were
TTITLE11=Be My Love
TTITLE12=Ritual Dance of Fire
TTITLE13=Gigi
TTITLE14=Moon River
TTITLE15=I Want to be Happy - Tea for Two
TTITLE16=The Shadow of Your Smile
TTITLE17=Les Toreadors from Carmen
TTITLE18=Emperor Waltz Op437
TTITLE19=Strike Up The Band
EXTD=
EXTT0=
EXTT1=
EXTT2=
EXTT3=
EXTT4=
EXTT5=
EXTT6=
EXTT7=
EXTT8=
EXTT9=
EXTT10=
EXTT11=
EXTT12=
EXTT13=
EXTT14=
EXTT15=
EXTT16=
EXTT17=
EXTT18=
EXTT19=
PLAYORDER=
